# xmcd
#
# Track frame offsets:
#   150
#   14219
#   17878
#   30326
#   35720
#   46583
#   75925
#   85592
#   88735
#   99546
#   130861
#   145248
#   162364
#   178709
#   186231
#   196062
#   207511
#
# Disc length: 2933 seconds
#
# Revision: 0
# Processed by: cddbd v1.5.2PL0 Copyright (c) Steve Scherf et al.
# Submitted via: GXTranscoder 2.0.1939
#
DISCID=da0b7311
DTITLE=Various Artist - Witze und Volksmusik
DYEAR=1900
DGENRE=Country
TTITLE0=Nix Amore
TTITLE1=Witz31
TTITLE2=Bauer sucht Frau
TTITLE3=Witz32
TTITLE4=Unsere Tante Mizzi
TTITLE5=Witz33
TTITLE6=Schwiegamuatta
TTITLE7=Witz34
TTITLE8=Goaﬂbock-Liead
TTITLE9=Witz35
TTITLE10=Der Bauch muss weg
TTITLE11=Witz36
TTITLE12=Depperter Bua
TTITLE13=Witz37
TTITLE14=Teifl eini, Teifl aussi
TTITLE15=Witz38
TTITLE16=Nicht nur in Dubai gibt's Kamele
EXTD=
EXTT0=
EXTT1=
EXTT2=
EXTT3=
EXTT4=
EXTT5=
EXTT6=
EXTT7=
EXTT8=
EXTT9=
EXTT10=
EXTT11=
EXTT12=
EXTT13=
EXTT14=
EXTT15=
EXTT16=
PLAYORDER=
